<svg width="611" height="157" viewBox="0 0 611 157" fill="none" xmlns="http://www.w3.org/2000/svg">
<path d="M403.21 132.844L396.832 133.014C396.765 132.56 396.585 132.157 396.292 131.807C395.998 131.447 395.615 131.168 395.141 130.969C394.677 130.76 394.138 130.656 393.522 130.656C392.717 130.656 392.031 130.817 391.462 131.139C390.904 131.461 390.629 131.897 390.638 132.446C390.629 132.872 390.799 133.241 391.15 133.554C391.51 133.866 392.149 134.117 393.067 134.307L397.272 135.102C399.45 135.519 401.069 136.21 402.13 137.176C403.2 138.142 403.74 139.42 403.749 141.011C403.74 142.508 403.295 143.81 402.414 144.918C401.543 146.026 400.35 146.887 398.835 147.503C397.319 148.109 395.586 148.412 393.636 148.412C390.52 148.412 388.063 147.773 386.263 146.494C384.474 145.206 383.451 143.483 383.195 141.324L390.056 141.153C390.208 141.949 390.601 142.555 391.235 142.972C391.87 143.388 392.679 143.597 393.664 143.597C394.554 143.597 395.279 143.431 395.837 143.099C396.396 142.768 396.68 142.328 396.69 141.778C396.68 141.286 396.462 140.893 396.036 140.599C395.61 140.296 394.942 140.06 394.033 139.889L390.227 139.165C388.039 138.767 386.41 138.033 385.34 136.963C384.27 135.884 383.74 134.51 383.749 132.844C383.74 131.385 384.128 130.14 384.914 129.108C385.7 128.066 386.817 127.271 388.266 126.722C389.715 126.172 391.424 125.898 393.394 125.898C396.349 125.898 398.678 126.518 400.383 127.758C402.087 128.99 403.03 130.685 403.21 132.844Z" fill="black"/>
<path d="M358.575 148V118.909H365.521V129.917H365.663C365.947 129.255 366.35 128.615 366.871 128C367.401 127.384 368.073 126.882 368.888 126.494C369.712 126.096 370.696 125.898 371.842 125.898C373.357 125.898 374.773 126.295 376.089 127.091C377.415 127.886 378.485 129.113 379.3 130.77C380.114 132.427 380.521 134.539 380.521 137.105C380.521 139.577 380.128 141.646 379.342 143.312C378.566 144.979 377.515 146.229 376.189 147.062C374.873 147.896 373.409 148.312 371.8 148.312C370.701 148.312 369.749 148.132 368.945 147.773C368.14 147.413 367.463 146.939 366.913 146.352C366.373 145.765 365.957 145.135 365.663 144.463H365.45V148H358.575ZM365.379 137.091C365.379 138.265 365.535 139.288 365.848 140.159C366.17 141.03 366.629 141.707 367.226 142.19C367.832 142.664 368.556 142.9 369.399 142.9C370.251 142.9 370.976 142.664 371.572 142.19C372.169 141.707 372.619 141.03 372.922 140.159C373.234 139.288 373.391 138.265 373.391 137.091C373.391 135.917 373.234 134.899 372.922 134.037C372.619 133.175 372.169 132.507 371.572 132.034C370.985 131.56 370.261 131.324 369.399 131.324C368.547 131.324 367.822 131.556 367.226 132.02C366.629 132.484 366.17 133.147 365.848 134.008C365.535 134.87 365.379 135.898 365.379 137.091Z" fill="black"/>
<path d="M341.289 148.369C339.896 148.369 338.661 148.137 337.581 147.673C336.511 147.2 335.664 146.49 335.039 145.543C334.423 144.586 334.115 143.388 334.115 141.949C334.115 140.737 334.328 139.714 334.754 138.881C335.181 138.047 335.768 137.37 336.516 136.849C337.264 136.329 338.126 135.936 339.101 135.67C340.076 135.396 341.118 135.211 342.226 135.116C343.467 135.003 344.466 134.884 345.223 134.761C345.981 134.629 346.53 134.444 346.871 134.207C347.221 133.961 347.396 133.616 347.396 133.17V133.099C347.396 132.37 347.146 131.807 346.644 131.409C346.142 131.011 345.465 130.812 344.612 130.812C343.694 130.812 342.955 131.011 342.396 131.409C341.838 131.807 341.483 132.356 341.331 133.057L334.925 132.83C335.114 131.504 335.602 130.32 336.388 129.278C337.183 128.227 338.272 127.403 339.655 126.807C341.047 126.201 342.718 125.898 344.669 125.898C346.061 125.898 347.344 126.063 348.519 126.395C349.693 126.717 350.716 127.19 351.587 127.815C352.458 128.431 353.13 129.188 353.604 130.088C354.087 130.988 354.328 132.015 354.328 133.17V148H347.794V144.96H347.624C347.236 145.699 346.738 146.324 346.132 146.835C345.536 147.347 344.83 147.73 344.016 147.986C343.211 148.241 342.302 148.369 341.289 148.369ZM343.433 143.824C344.182 143.824 344.854 143.672 345.45 143.369C346.057 143.066 346.539 142.65 346.899 142.119C347.259 141.58 347.439 140.955 347.439 140.244V138.17C347.24 138.275 346.999 138.369 346.715 138.455C346.44 138.54 346.137 138.62 345.806 138.696C345.474 138.772 345.133 138.838 344.783 138.895C344.432 138.952 344.096 139.004 343.774 139.051C343.121 139.155 342.562 139.316 342.098 139.534C341.644 139.752 341.293 140.036 341.047 140.386C340.81 140.727 340.692 141.134 340.692 141.608C340.692 142.328 340.948 142.877 341.459 143.256C341.98 143.634 342.638 143.824 343.433 143.824Z" fill="black"/>
<path d="M312.364 148V118.909H319.396V142.29H331.498V148H312.364Z" fill="black"/>
<path d="M285.365 135.557V148H278.419V126.182H285.024V130.187H285.266C285.748 128.852 286.572 127.806 287.737 127.048C288.902 126.281 290.289 125.898 291.899 125.898C293.433 125.898 294.764 126.243 295.891 126.935C297.027 127.616 297.908 128.573 298.533 129.804C299.167 131.026 299.48 132.455 299.47 134.094V148H292.524V135.457C292.534 134.245 292.226 133.298 291.601 132.616C290.985 131.935 290.128 131.594 289.03 131.594C288.301 131.594 287.657 131.755 287.098 132.077C286.549 132.389 286.123 132.839 285.82 133.426C285.526 134.013 285.374 134.723 285.365 135.557Z" fill="black"/>
<path d="M262.925 156.636C260.851 156.636 259.076 156.348 257.599 155.77C256.121 155.192 254.961 154.401 254.118 153.398C253.276 152.394 252.769 151.258 252.599 149.989L259.175 149.619C259.298 150.064 259.526 150.453 259.857 150.784C260.198 151.116 260.638 151.371 261.178 151.551C261.727 151.731 262.371 151.821 263.11 151.821C264.275 151.821 265.236 151.537 265.993 150.969C266.76 150.41 267.144 149.43 267.144 148.028V144.193H266.903C266.628 144.866 266.211 145.467 265.653 145.997C265.094 146.527 264.398 146.944 263.564 147.247C262.741 147.55 261.794 147.702 260.724 147.702C259.133 147.702 257.674 147.332 256.349 146.594C255.032 145.846 253.976 144.69 253.181 143.128C252.395 141.556 252.002 139.534 252.002 137.062C252.002 134.515 252.409 132.418 253.224 130.77C254.038 129.113 255.103 127.886 256.42 127.091C257.745 126.295 259.171 125.898 260.695 125.898C261.841 125.898 262.821 126.097 263.635 126.494C264.459 126.883 265.136 127.384 265.667 128C266.197 128.616 266.599 129.255 266.874 129.918H267.073V126.182H273.991V148.085C273.991 149.932 273.527 151.49 272.599 152.758C271.671 154.027 270.373 154.989 268.707 155.642C267.04 156.305 265.113 156.636 262.925 156.636ZM263.138 142.645C263.981 142.645 264.701 142.422 265.297 141.977C265.894 141.532 266.353 140.893 266.675 140.06C266.997 139.226 267.158 138.227 267.158 137.062C267.158 135.879 266.997 134.861 266.675 134.008C266.363 133.147 265.903 132.484 265.297 132.02C264.701 131.556 263.981 131.324 263.138 131.324C262.277 131.324 261.547 131.561 260.951 132.034C260.354 132.508 259.9 133.175 259.587 134.037C259.284 134.889 259.133 135.898 259.133 137.062C259.133 138.227 259.289 139.226 259.601 140.06C259.914 140.893 260.364 141.532 260.951 141.977C261.547 142.422 262.277 142.645 263.138 142.645Z" fill="black"/>
<path d="M241.387 148V126.182H248.333V148H241.387ZM244.868 123.639C243.892 123.639 243.054 123.317 242.353 122.673C241.653 122.02 241.302 121.234 241.302 120.315C241.302 119.406 241.653 118.63 242.353 117.986C243.054 117.332 243.892 117.006 244.868 117.006C245.852 117.006 246.691 117.332 247.382 117.986C248.083 118.63 248.433 119.406 248.433 120.315C248.433 121.234 248.083 122.02 247.382 122.673C246.691 123.317 245.852 123.639 244.868 123.639Z" fill="black"/>
<path d="M237.428 132.844L231.05 133.014C230.984 132.56 230.804 132.157 230.511 131.807C230.217 131.447 229.834 131.168 229.36 130.969C228.896 130.76 228.356 130.656 227.741 130.656C226.936 130.656 226.249 130.817 225.681 131.139C225.122 131.461 224.848 131.897 224.857 132.446C224.848 132.872 225.018 133.241 225.369 133.554C225.728 133.866 226.368 134.117 227.286 134.307L231.491 135.102C233.669 135.519 235.288 136.21 236.349 137.176C237.419 138.142 237.959 139.42 237.968 141.011C237.959 142.508 237.513 143.81 236.633 144.918C235.762 146.026 234.568 146.887 233.053 147.503C231.538 148.109 229.805 148.412 227.854 148.412C224.739 148.412 222.281 147.773 220.482 146.494C218.692 145.206 217.67 143.483 217.414 141.324L224.275 141.153C224.426 141.949 224.819 142.555 225.454 142.972C226.088 143.388 226.898 143.597 227.883 143.597C228.773 143.597 229.497 143.431 230.056 143.099C230.615 142.768 230.899 142.328 230.908 141.778C230.899 141.286 230.681 140.893 230.255 140.599C229.829 140.296 229.161 140.06 228.252 139.889L224.445 139.165C222.258 138.767 220.629 138.033 219.559 136.963C218.489 135.884 217.959 134.51 217.968 132.844C217.959 131.385 218.347 130.14 219.133 129.108C219.919 128.066 221.036 127.271 222.485 126.722C223.934 126.172 225.643 125.898 227.613 125.898C230.567 125.898 232.897 126.518 234.602 127.758C236.306 128.99 237.248 130.685 237.428 132.844Z" fill="black"/>
<path d="M204.477 148.412C202.195 148.412 200.225 147.962 198.568 147.062C196.921 146.153 195.652 144.861 194.761 143.185C193.881 141.499 193.44 139.496 193.44 137.176C193.44 134.922 193.886 132.953 194.776 131.267C195.666 129.572 196.921 128.256 198.54 127.318C200.159 126.371 202.067 125.898 204.264 125.898C205.817 125.898 207.238 126.139 208.526 126.622C209.814 127.105 210.926 127.82 211.864 128.767C212.801 129.714 213.53 130.884 214.051 132.276C214.572 133.658 214.832 135.244 214.832 137.034V138.767H195.869V134.733H208.369C208.36 133.994 208.185 133.336 207.844 132.758C207.503 132.181 207.034 131.731 206.438 131.409C205.85 131.078 205.173 130.912 204.406 130.912C203.63 130.912 202.934 131.087 202.318 131.437C201.703 131.778 201.215 132.247 200.855 132.844C200.495 133.431 200.306 134.098 200.287 134.847V138.952C200.287 139.842 200.462 140.623 200.813 141.295C201.163 141.958 201.66 142.474 202.304 142.844C202.948 143.213 203.715 143.398 204.605 143.398C205.221 143.398 205.779 143.312 206.281 143.142C206.783 142.972 207.214 142.721 207.574 142.389C207.934 142.058 208.204 141.651 208.384 141.168L214.761 141.352C214.496 142.782 213.914 144.027 213.014 145.088C212.124 146.139 210.955 146.958 209.506 147.545C208.057 148.123 206.381 148.412 204.477 148.412Z" fill="black"/>
<path d="M175.812 148H165.06V118.909H175.798C178.762 118.909 181.314 119.491 183.454 120.656C185.604 121.811 187.261 123.478 188.426 125.656C189.591 127.825 190.173 130.419 190.173 133.44C190.173 136.47 189.591 139.075 188.426 141.253C187.271 143.431 185.618 145.102 183.469 146.267C181.319 147.422 178.767 148 175.812 148ZM172.091 142.006H175.543C177.171 142.006 178.549 141.731 179.676 141.182C180.812 140.623 181.669 139.719 182.247 138.469C182.834 137.209 183.128 135.533 183.128 133.44C183.128 131.347 182.834 129.681 182.247 128.44C181.66 127.19 180.793 126.291 179.648 125.741C178.511 125.183 177.11 124.903 175.443 124.903H172.091V142.006Z" fill="black"/>
<path d="M408.762 16.9404V1.72729H480.438V16.9404H453.719V89H435.48V16.9404H408.762Z" fill="black"/>
<path d="M343.606 1.72729L361.205 31.4716H361.887L379.571 1.72729H400.41L373.776 45.3637L401.006 89H379.785L361.887 59.2131H361.205L343.307 89H322.171L349.486 45.3637L322.682 1.72729H343.606Z" fill="black"/>
<path d="M252.828 89V1.72729H311.634V16.9404H271.279V37.7358H308.609V52.9489H271.279V73.787H311.805V89H252.828Z" fill="black"/>
<path d="M237.583 1.72729V89H221.645L183.676 34.071H183.037V89H164.585V1.72729H180.779L218.449 56.6137H219.216V1.72729H237.583Z" fill="black"/>
<path d="M610.856 0.727295V88H602.888V0.727295H610.856Z" fill="black"/>
<path d="M571.758 0.727295H579.727V58.5114C579.727 64.4489 578.335 69.7614 575.551 74.4489C572.767 79.108 568.889 82.787 563.918 85.4858C558.974 88.1563 553.222 89.4915 546.659 89.4915C540.125 89.4915 534.372 88.1421 529.4 85.4432C524.429 82.7443 520.551 79.0654 517.767 74.4063C514.983 69.7472 513.591 64.4489 513.591 58.5114V0.727295H521.56V57.9574C521.56 62.5881 522.597 66.7216 524.67 70.358C526.744 73.9659 529.656 76.8068 533.406 78.8807C537.185 80.9546 541.602 81.9915 546.659 81.9915C551.716 81.9915 556.133 80.9546 559.912 78.8807C563.69 76.8068 566.602 73.9659 568.648 70.358C570.722 66.7216 571.758 62.5881 571.758 57.9574V0.727295Z" fill="black"/>
<path d="M125 51.4348L0 1V12.8261L125 63.2609V51.4348Z" fill="black"/>
<path d="M63.0194 76.4783L0 51.4348V63.2609L63.0194 89V76.4783Z" fill="black"/>
<path d="M125 76.4783L0 26.0435V38.913L125 89V76.4783Z" fill="black"/>
<path d="M63.0194 12.8261V1L125 26.0435V38.913L63.0194 12.8261Z" fill="black"/>
</svg>
